{
  "ffprobe": {
    "audio_streams": [
      {
        "avg_frame_rate": "0/0",
        "bit_rate": "1152000",
        "bits_per_raw_sample": "24",
        "bits_per_sample": 24,
        "channels": 1,
        "codec_long_name": "PCM signed 24-bit little-endian",
        "codec_name": "pcm_s24le",
        "codec_tag": "0x0000",
        "codec_tag_string": "[0][0][0][0]",
        "codec_time_base": "1/48000",
        "codec_type": "audio",
        "disposition": {
          "attached_pic": 0,
          "clean_effects": 0,
          "comment": 0,
          "default": 0,
          "dub": 0,
          "forced": 0,
          "hearing_impaired": 0,
          "karaoke": 0,
          "lyrics": 0,
          "original": 0,
          "timed_thumbnails": 0,
          "visual_impaired": 0
        },
        "duration": "1908.920000",
        "duration_ts": 91628160,
        "index": 1,
        "r_frame_rate": "0/0",
        "sample_fmt": "s32",
        "sample_rate": "48000",
        "start_pts": 0,
        "start_time": "0.000000",
        "tags": {
          "file_package_umid": "0x060A2B340101010501010D2013000000E2BF3BE0660311EA860FAC1F6BB55F9A",
          "track_name": "Sound"
        },
        "time_base": "1/48000"
      },
      {
        "avg_frame_rate": "0/0",
        "bit_rate": "1152000",
        "bits_per_raw_sample": "24",
        "bits_per_sample": 24,
        "channels": 1,
        "codec_long_name": "PCM signed 24-bit little-endian",
        "codec_name": "pcm_s24le",
        "codec_tag": "0x0000",
        "codec_tag_string": "[0][0][0][0]",
        "codec_time_base": "1/48000",
        "codec_type": "audio",
        "disposition": {
          "attached_pic": 0,
          "clean_effects": 0,
          "comment": 0,
          "default": 0,
          "dub": 0,
          "forced": 0,
          "hearing_impaired": 0,
          "karaoke": 0,
          "lyrics": 0,
          "original": 0,
          "timed_thumbnails": 0,
          "visual_impaired": 0
        },
        "duration": "1908.920000",
        "duration_ts": 91628160,
        "index": 2,
        "r_frame_rate": "0/0",
        "sample_fmt": "s32",
        "sample_rate": "48000",
        "start_pts": 0,
        "start_time": "0.000000",
        "tags": {
          "file_package_umid": "0x060A2B340101010501010D2013000000E2BF3BE0660311EA860FAC1F6BB55F9A",
          "track_name": "Sound"
        },
        "time_base": "1/48000"
      },
      {
        "avg_frame_rate": "0/0",
        "bit_rate": "1152000",
        "bits_per_raw_sample": "24",
        "bits_per_sample": 24,
        "channels": 1,
        "codec_long_name": "PCM signed 24-bit little-endian",
        "codec_name": "pcm_s24le",
        "codec_tag": "0x0000",
        "codec_tag_string": "[0][0][0][0]",
        "codec_time_base": "1/48000",
        "codec_type": "audio",
        "disposition": {
          "attached_pic": 0,
          "clean_effects": 0,
          "comment": 0,
          "default": 0,
          "dub": 0,
          "forced": 0,
          "hearing_impaired": 0,
          "karaoke": 0,
          "lyrics": 0,
          "original": 0,
          "timed_thumbnails": 0,
          "visual_impaired": 0
        },
        "duration": "1908.920000",
        "duration_ts": 91628160,
        "index": 3,
        "r_frame_rate": "0/0",
        "sample_fmt": "s32",
        "sample_rate": "48000",
        "start_pts": 0,
        "start_time": "0.000000",
        "tags": {
          "file_package_umid": "0x060A2B340101010501010D2013000000E2BF3BE0660311EA860FAC1F6BB55F9A",
          "track_name": "Sound"
        },
        "time_base": "1/48000"
      },
      {
        "avg_frame_rate": "0/0",
        "bit_rate": "1152000",
        "bits_per_raw_sample": "24",
        "bits_per_sample": 24,
        "channels": 1,
        "codec_long_name": "PCM signed 24-bit little-endian",
        "codec_name": "pcm_s24le",
        "codec_tag": "0x0000",
        "codec_tag_string": "[0][0][0][0]",
        "codec_time_base": "1/48000",
        "codec_type": "audio",
        "disposition": {
          "attached_pic": 0,
          "clean_effects": 0,
          "comment": 0,
          "default": 0,
          "dub": 0,
          "forced": 0,
          "hearing_impaired": 0,
          "karaoke": 0,
          "lyrics": 0,
          "original": 0,
          "timed_thumbnails": 0,
          "visual_impaired": 0
        },
        "duration": "1908.920000",
        "duration_ts": 91628160,
        "index": 4,
        "r_frame_rate": "0/0",
        "sample_fmt": "s32",
        "sample_rate": "48000",
        "start_pts": 0,
        "start_time": "0.000000",
        "tags": {
          "file_package_umid": "0x060A2B340101010501010D2013000000E2BF3BE0660311EA860FAC1F6BB55F9A",
          "track_name": "Sound"
        },
        "time_base": "1/48000"
      }
    ],
    "format": {
      "bit_rate": "125952049",
      "duration": "1908.920000",
      "filename": "/mnt/archive2/UEFA/202003/9606855004/9606855004_original.mxf",
      "filename_extension": "mxf",
      "format_long_name": "MXF (Material eXchange Format)",
      "format_name": "mxf",
      "nb_programs": 0,
      "probe_score": 100,
      "size": "30054048304",
      "start_time": "0.000000",
      "streams_attachment_count": 0,
      "streams_audio_count": 4,
      "streams_count": 5,
      "streams_data_count": 0,
      "streams_image_count": 0,
      "streams_subtitle_count": 0,
      "streams_video_count": 1
    },
    "video_streams": [
      {
        "avg_frame_rate": "25/1",
        "bits_per_raw_sample": "8",
        "codec_long_name": "VC3/DNxHD",
        "codec_name": "dnxhd",
        "codec_tag": "0x0000",
        "codec_tag_string": "[0][0][0][0]",
        "codec_time_base": "1/25",
        "codec_type": "video",
        "coded_height": 1088,
        "coded_width": 1920,
        "color_space": "bt709",
        "display_aspect_ratio": "16:9",
        "disposition": {
          "attached_pic": 0,
          "clean_effects": 0,
          "comment": 0,
          "default": 0,
          "dub": 0,
          "forced": 0,
          "hearing_impaired": 0,
          "karaoke": 0,
          "lyrics": 0,
          "original": 0,
          "timed_thumbnails": 0,
          "visual_impaired": 0
        },
        "duration": "1908.920000",
        "duration_ts": 47723,
        "field_order": "tt",
        "has_b_frames": 0,
        "height": 1080,
        "index": 0,
        "level": -99,
        "pix_fmt": "yuv422p",
        "profile": "DNXHD",
        "r_frame_rate": "25/1",
        "refs": 1,
        "sample_aspect_ratio": "1:1",
        "start_pts": 0,
        "start_time": "0.000000",
        "tags": {
          "file_package_umid": "0x060A2B340101010501010D2013000000E2BF3BE0660311EA860FAC1F6BB55F9A",
          "track_name": "Picture"
        },
        "time_base": "1/25",
        "width": 1920
      }
    ]
  },
  "mediainfo": {
    "audio_streams": [
      {
        "BitDepth": 24,
        "BitRate": 1152000,
        "BitRate_Mode": "CBR",
        "Channels": 1,
        "CodecID": "0D01030102060300-040202017F000000",
        "Delay": "36000.000",
        "Delay_DropFrame": "No",
        "Delay_Source": "Container",
        "Duration": "1908.920",
        "Format": "PCM",
        "Format_Settings_Endianness": "Little",
        "Format_Settings_Wrapping": "Frame (AES)",
        "FrameCount": 47723,
        "FrameRate": "25.000",
        "ID": 3,
        "SamplesPerFrame": 1920,
        "SamplingCount": 91628160,
        "SamplingRate": 48000,
        "StreamOrder": 1,
        "StreamSize": 274884480,
        "StreamSize_Proportion": "0.00915",
        "Title": "Sound",
        "extra": {
          "BlockAlignment": 3,
          "Delay_SystemScheme1": 36000000,
          "Locked": "Yes"
        }
      },
      {
        "BitDepth": 24,
        "BitRate": 1152000,
        "BitRate_Mode": "CBR",
        "Channels": 1,
        "CodecID": "0D01030102060300-040202017F000000",
        "Delay": "36000.000",
        "Delay_DropFrame": "No",
        "Delay_Source": "Container",
        "Duration": "1908.920",
        "Format": "PCM",
        "Format_Settings_Endianness": "Little",
        "Format_Settings_Wrapping": "Frame (AES)",
        "FrameCount": 47723,
        "FrameRate": "25.000",
        "ID": 4,
        "SamplesPerFrame": 1920,
        "SamplingCount": 91628160,
        "SamplingRate": 48000,
        "StreamOrder": 2,
        "StreamSize": 274884480,
        "StreamSize_Proportion": "0.00915",
        "Title": "Sound",
        "extra": {
          "BlockAlignment": 3,
          "Delay_SystemScheme1": 36000000,
          "Locked": "Yes"
        }
      },
      {
        "BitDepth": 24,
        "BitRate": 1152000,
        "BitRate_Mode": "CBR",
        "Channels": 1,
        "CodecID": "0D01030102060300-040202017F000000",
        "Delay": "36000.000",
        "Delay_DropFrame": "No",
        "Delay_Source": "Container",
        "Duration": "1908.920",
        "Format": "PCM",
        "Format_Settings_Endianness": "Little",
        "Format_Settings_Wrapping": "Frame (AES)",
        "FrameCount": 47723,
        "FrameRate": "25.000",
        "ID": 5,
        "SamplesPerFrame": 1920,
        "SamplingCount": 91628160,
        "SamplingRate": 48000,
        "StreamOrder": 3,
        "StreamSize": 274884480,
        "StreamSize_Proportion": "0.00915",
        "Title": "Sound",
        "extra": {
          "BlockAlignment": 3,
          "Delay_SystemScheme1": 36000000,
          "Locked": "Yes"
        }
      },
      {
        "BitDepth": 24,
        "BitRate": 1152000,
        "BitRate_Mode": "CBR",
        "Channels": 1,
        "CodecID": "0D01030102060300-040202017F000000",
        "Delay": "36000.000",
        "Delay_DropFrame": "No",
        "Delay_Source": "Container",
        "Duration": "1908.920",
        "Format": "PCM",
        "Format_Settings_Endianness": "Little",
        "Format_Settings_Wrapping": "Frame (AES)",
        "FrameCount": 47723,
        "FrameRate": "25.000",
        "ID": 6,
        "SamplesPerFrame": 1920,
        "SamplingCount": 91628160,
        "SamplingRate": 48000,
        "StreamOrder": 4,
        "StreamSize": 274884480,
        "StreamSize_Proportion": "0.00915",
        "Title": "Sound",
        "extra": {
          "BlockAlignment": 3,
          "Delay_SystemScheme1": 36000000,
          "Locked": "Yes"
        }
      }
    ],
    "format": {
      "AudioCount": 4,
      "Duration": "1908.920",
      "Encoded_Application_CompanyName": "OpenCube",
      "Encoded_Application_Name": "MXFTk Advanced",
      "Encoded_Application_Version": "2.10.4.0.1",
      "Encoded_Date": "2020-03-14 22:55:46.336",
      "Encoded_Library_Name": "Microsoft Windows Professional  (Build 9200)",
      "Encoded_Library_Version": "2.10.4.0.1",
      "FileExtension": "mxf",
      "FileSize": 30054048304,
      "File_Modified_Date": "UTC 2020-04-07 13:30:43",
      "File_Modified_Date_Local": "2020-04-07 13:30:43",
      "FooterSize": 1072,
      "Format": "MXF",
      "Format_Commercial_IfAny": "DNxHD 120",
      "Format_Profile": "OP-1a",
      "Format_Settings": "Closed / Complete",
      "Format_Version": "1.3",
      "FrameCount": 47723,
      "FrameRate": "25.000",
      "OtherCount": 3,
      "OverallBitRate": 125952048,
      "StreamSize": 24446000,
      "VideoCount": 1,
      "filename": "/mnt/archive2/UEFA/202003/9606855004/9606855004_original.mxf",
      "streams_attachment_count": 0,
      "streams_audio_count": 4,
      "streams_count": 5,
      "streams_data_count": 0,
      "streams_image_count": 0,
      "streams_other_count": 0,
      "streams_subtitle_count": 0,
      "streams_video_count": 1
    },
    "other_streams": [
      {
        "Format": "MXF TC",
        "ID": "1-Material",
        "TimeCode_FirstFrame": "10:00:00:00",
        "TimeCode_Settings": "Material Package",
        "TimeCode_Striped": "Yes",
        "Type": "Time code"
      },
      {
        "Format": "MXF TC",
        "ID": "1-Source",
        "TimeCode_FirstFrame": "10:00:00:00",
        "TimeCode_Settings": "Source Package",
        "TimeCode_Striped": "Yes",
        "Type": "Time code"
      },
      {
        "Format": "SMPTE TC",
        "MuxingMode": "System scheme 1",
        "TimeCode_FirstFrame": "10:00:00:00",
        "Type": "Time code"
      }
    ],
    "video_streams": [
      {
        "BitDepth": 8,
        "BitRate": 121241600,
        "BitRate_Mode": "CBR",
        "ChromaSubsampling": "4:2:2",
        "CodecID": "0D01030102110100-0401020271080000",
        "ColorSpace": "YUV",
        "Delay": "36000.000",
        "DisplayAspectRatio": "1.778",
        "Duration": "1908.920",
        "Format": "VC-3",
        "Format_Commercial_IfAny": "DNxHD 120",
        "Format_Level": "SQ",
        "Format_Profile": "HD",
        "Format_Settings_Wrapping": "Frame",
        "Format_Version": 1,
        "FrameCount": 47723,
        "FrameRate": "25.000",
        "Height": 1080,
        "ID": 2,
        "PixelAspectRatio": "1.000",
        "ScanOrder": "TFF",
        "ScanType": "Interlaced",
        "StreamOrder": 0,
        "StreamSize": 28930064384,
        "Title": "Picture",
        "Width": 1920,
        "extra": {
          "Delay_SystemScheme1": 36000000
        },
        "transfer_characteristics": "BT.709",
        "transfer_characteristics_Source": "Container"
      }
    ]
  }
}
